
<svg width="1920" height="1080" viewBox="0 0 1920 1080" fill="none" xmlns="http://www.w3.org/2000/svg">
<rect width="1920" height="1080" fill="#E5E5E5"/>
<g clip-path="url(#clip0)">
<path d="M1920 0H0V1080H1920V0Z" fill="white"/>
<path d="M1920 0H0V1080H1920V0Z" fill="white"/>
<path d="M1920 0H0V1080H1920V0Z" fill="#C4C4C4"/>
<path d="M1920 0H0V1080H1920V0Z" fill="url(#paint0_linear)"/>
<g opacity="0.9" filter="url(#filter0_f)">
<path fill-rule="evenodd" clip-rule="evenodd" d="M0 1035H1185.5C1201.63 1024.47 1215.48 1011.87 1226.38 997.702C1230.65 998.229 1235.01 998.497 1239.44 998.497C1261.09 998.497 1280.98 992 1296.67 981.132C1325.99 1003.33 1364.32 1016.77 1406.28 1016.77C1450.52 1016.77 1490.74 1001.81 1520.6 977.414C1523.72 977.557 1526.85 977.625 1530.01 977.625C1601.69 977.625 1663.23 941.457 1689.8 889.826C1734.16 930.795 1799.96 956.746 1873.41 956.746C1889.35 956.746 1904.92 955.524 1920 953.192L1920 205.993C1889.58 180.703 1827.84 163.399 1756.62 163.399C1713.37 163.399 1673.61 169.782 1642.24 180.463C1582.24 158.566 1511.63 136.917 1435.25 117.709C1405.95 110.341 1377.2 103.682 1349.29 97.7538C1335.52 68.8836 1302.73 48.5715 1264.47 48.5715C1256.12 48.5715 1248.04 49.5384 1240.35 51.3499C1233.53 32.239 1222.28 14.8202 1207.64 0H4.52413e-05L0 1035ZM1912.34 529.472C1914.24 531.438 1916.2 533.375 1918.2 535.28C1916.2 537.186 1914.24 539.122 1912.34 541.089V529.472ZM1189.37 207.763C1188.32 207.381 1187.27 206.999 1186.22 206.617C1185.67 207.002 1185.12 207.384 1184.57 207.763H1189.37Z" fill="url(#paint1_linear)"/>
</g>
<path fill-rule="evenodd" clip-rule="evenodd" d="M728.865 0C718 0 0 0 0 0V1080H437.968V1079.69C441.394 1079.89 444.855 1080 448.346 1080C486.026 1080 518.503 1051.09 545.251 1047.51C572 1043.92 618.276 1050.12 658.512 1043.92C729.052 1033.06 806 984.5 828.661 977.897C851.323 971.294 868 972 891 968C914 964 924.686 933.48 960.093 931.99C995.5 930.5 1009.66 951.864 1038.88 951.864C1089.76 951.864 1088 899 1126 912C1164 925 1172 898.5 1178.5 892.5C1185 886.5 1191.15 883.819 1211.33 883.409C1231.5 883 1261.83 911.187 1293.15 911.187C1326.17 911.187 1363.5 902.5 1373.5 886.5C1383.5 870.5 1384 864 1423 864C1462 864 1483.59 814.003 1504.8 812.251C1526 810.5 1587.03 864.407 1641.86 864.407C1713.04 864.407 1772.53 793.072 1804.01 780.786C1835.5 768.5 1837 778 1859.5 776.5C1882 775 1890.26 770.496 1920 752.651V317.436C1920 303.5 1920 294.372 1920 283.5C1920 276.872 1920 275 1920 266.062V189.196C1909.95 192.622 1899.72 197.006 1889.57 202.346C1865.57 214.969 1863 232.5 1832.39 247.352C1801.78 262.204 1794.5 246.102 1756.5 259.401C1718.5 272.7 1738 298 1689.61 296.513C1641.23 295.026 1622.22 246.102 1554.68 246.102C1522.39 246.102 1498.09 258.302 1469.29 259.401C1440.5 260.5 1357.5 202.346 1314.77 210.493C1272.05 218.64 1266 206 1250.61 194.941C1235.21 183.882 1222 155 1201 158.775C1180 162.551 1180.56 162.551 1169.28 158.775C1158 155 1106.23 79.3221 1050.29 79.3221C1019.14 79.3221 988.174 95.6801 936.5 92C884.826 88.3199 852.972 22.373 774.227 22.373C761.529 22.373 750.5 19 746 16C741.5 13 739.73 0 728.865 0Z" fill="white"/>
</g>
<defs>
<filter id="filter0_f" x="-100" y="-100" width="2120" height="1235" filterUnits="userSpaceOnUse" color-interpolation-filters="sRGB">
<feFlood flood-opacity="0" result="BackgroundImageFix"/>
<feBlend mode="normal" in="SourceGraphic" in2="BackgroundImageFix" result="shape"/>
<feGaussianBlur stdDeviation="50" result="effect1_foregroundBlur"/>
</filter>
<linearGradient id="paint0_linear" x1="0" y1="0" x2="922.967" y2="1640.83" gradientUnits="userSpaceOnUse">
<stop stop-color="#1E74FF"/>
<stop offset="1" stop-color="#1C38CF"/>
</linearGradient>
<linearGradient id="paint1_linear" x1="0" y1="0" x2="864.613" y2="1603.92" gradientUnits="userSpaceOnUse">
<stop stop-color="#306ED1"/>
<stop offset="1" stop-color="#162C9E"/>
</linearGradient>
<clipPath id="clip0">
<rect width="1920" height="1080" fill="white"/>
</clipPath>
</defs>
</svg>
